<mxfile host="65bd71144e">
    <diagram id="3OohF3zZj5IYDjtF-hu-" name="Page-1">
        <mxGraphModel dx="3920" dy="4026" grid="1" gridSize="10" guides="1" tooltips="1" connect="1" arrows="1" fold="1" page="1" pageScale="1" pageWidth="850" pageHeight="1100" math="0" shadow="0">
            <root>
                <mxCell id="0"/>
                <mxCell id="1" parent="0"/>
                <mxCell id="44" style="edgeStyle=none;html=1;exitX=1;exitY=0.5;exitDx=0;exitDy=0;entryX=0.02;entryY=0.618;entryDx=0;entryDy=0;entryPerimeter=0;strokeWidth=9;fontSize=20;fontColor=#F0BEBE;" edge="1" parent="1" source="2" target="24">
                    <mxGeometry relative="1" as="geometry"/>
                </mxCell>
                <mxCell id="2" value="&lt;div style=&quot;text-align: center;&quot;&gt;&lt;b style=&quot;background-color: initial;&quot;&gt;&lt;font style=&quot;font-size: 36px;&quot;&gt;game_detail.csv&lt;/font&gt;&lt;/b&gt;&lt;/div&gt;&lt;ul style=&quot;font-size: 18px;&quot;&gt;&lt;li style=&quot;&quot;&gt;&lt;font style=&quot;font-size: 18px;&quot;&gt;data from 2003 to 2023&lt;/font&gt;&lt;/li&gt;&lt;li style=&quot;&quot;&gt;every player's basic stats in every single game&lt;/li&gt;&lt;li style=&quot;&quot;&gt;have same game ids as &quot;game.csv&quot;&lt;/li&gt;&lt;/ul&gt;" style="rounded=0;whiteSpace=wrap;html=1;align=left;" vertex="1" parent="1">
                    <mxGeometry x="140" y="-2364" width="450" height="334" as="geometry"/>
                </mxCell>
                <mxCell id="6" value="&lt;div style=&quot;text-align: center;&quot;&gt;&lt;span style=&quot;font-size: 36px;&quot;&gt;&lt;b&gt;game.csv&lt;/b&gt;&lt;/span&gt;&lt;/div&gt;&lt;ul style=&quot;font-size: 18px;&quot;&gt;&lt;li style=&quot;&quot;&gt;&lt;font style=&quot;font-size: 18px;&quot;&gt;data from 2003 to 2023&lt;/font&gt;&lt;/li&gt;&lt;li style=&quot;&quot;&gt;every game's result and team's basic stats&lt;/li&gt;&lt;li style=&quot;&quot;&gt;have same game ids as &quot;game_detail.csv&quot;&lt;/li&gt;&lt;/ul&gt;" style="rounded=0;whiteSpace=wrap;html=1;align=left;" vertex="1" parent="1">
                    <mxGeometry x="-520" y="-2364" width="420" height="330" as="geometry"/>
                </mxCell>
                <mxCell id="7" value="&lt;div style=&quot;text-align: center;&quot;&gt;&lt;span style=&quot;font-size: 36px;&quot;&gt;&lt;b&gt;NBA_betting_total.csv&lt;/b&gt;&lt;/span&gt;&lt;/div&gt;&lt;ul style=&quot;font-size: 18px;&quot;&gt;&lt;li style=&quot;&quot;&gt;&lt;font style=&quot;font-size: 18px;&quot;&gt;data from 2006 to 2018&lt;/font&gt;&lt;/li&gt;&lt;li style=&quot;&quot;&gt;different bookers' money line and game's total points&lt;/li&gt;&lt;li style=&quot;&quot;&gt;in this project, I use&amp;nbsp; Bookmaker as the betting website&lt;/li&gt;&lt;/ul&gt;" style="rounded=0;whiteSpace=wrap;html=1;align=left;" vertex="1" parent="1">
                    <mxGeometry x="-1210" y="-2360" width="430" height="330" as="geometry"/>
                </mxCell>
                <mxCell id="12" value="" style="endArrow=none;html=1;strokeWidth=9;fontSize=36;entryX=0.5;entryY=1;entryDx=0;entryDy=0;" edge="1" parent="1" target="6">
                    <mxGeometry width="50" height="50" relative="1" as="geometry">
                        <mxPoint x="-310" y="-1860" as="sourcePoint"/>
                        <mxPoint x="-390" y="-2010" as="targetPoint"/>
                    </mxGeometry>
                </mxCell>
                <mxCell id="13" value="" style="endArrow=none;html=1;strokeWidth=9;fontSize=36;entryX=0.5;entryY=1;entryDx=0;entryDy=0;" edge="1" parent="1">
                    <mxGeometry width="50" height="50" relative="1" as="geometry">
                        <mxPoint x="-1010" y="-1859.9999999999995" as="sourcePoint"/>
                        <mxPoint x="-1010" y="-2029.9999999999995" as="targetPoint"/>
                    </mxGeometry>
                </mxCell>
                <mxCell id="14" value="" style="endArrow=none;html=1;strokeWidth=9;fontSize=36;entryX=0.5;entryY=1;entryDx=0;entryDy=0;" edge="1" parent="1">
                    <mxGeometry width="50" height="50" relative="1" as="geometry">
                        <mxPoint x="-310" y="-1864" as="sourcePoint"/>
                        <mxPoint x="-1010" y="-1863.9999999999995" as="targetPoint"/>
                    </mxGeometry>
                </mxCell>
                <mxCell id="15" value="" style="endArrow=classic;html=1;strokeWidth=9;fontSize=36;" edge="1" parent="1">
                    <mxGeometry width="50" height="50" relative="1" as="geometry">
                        <mxPoint x="-660" y="-1860" as="sourcePoint"/>
                        <mxPoint x="-660" y="-1760" as="targetPoint"/>
                    </mxGeometry>
                </mxCell>
                <mxCell id="18" value="&lt;font style=&quot;font-size: 20px;&quot;&gt;align the money line, betting total and game result using game_id&lt;br&gt;add &quot;is_back_to_back&quot; column&lt;br style=&quot;font-size: 20px;&quot;&gt;&lt;/font&gt;" style="whiteSpace=wrap;html=1;fontSize=20;opacity=0;fontStyle=1;fontColor=#F0BEBE;" vertex="1" parent="1">
                    <mxGeometry x="-990" y="-1930" width="660" height="50" as="geometry"/>
                </mxCell>
                <mxCell id="20" value="&lt;div style=&quot;text-align: center;&quot;&gt;&lt;span style=&quot;font-size: 36px;&quot;&gt;&lt;b&gt;&lt;span style=&quot;white-space: pre;&quot;&gt;&#9;&lt;/span&gt;game_data.csv&lt;/b&gt;&lt;/span&gt;&lt;/div&gt;&lt;ul style=&quot;font-size: 18px;&quot;&gt;&lt;li style=&quot;&quot;&gt;&lt;font style=&quot;font-size: 18px;&quot;&gt;data from 2006 to 2018&lt;/font&gt;&lt;/li&gt;&lt;li style=&quot;&quot;&gt;every game's result&lt;/li&gt;&lt;li style=&quot;&quot;&gt;team's basic stats&lt;/li&gt;&lt;li style=&quot;&quot;&gt;betting total and money line&lt;/li&gt;&lt;/ul&gt;" style="rounded=0;whiteSpace=wrap;html=1;align=left;" vertex="1" parent="1">
                    <mxGeometry x="-870" y="-1750" width="420" height="330" as="geometry"/>
                </mxCell>
                <mxCell id="23" value="&lt;font color=&quot;#f0bebe&quot;&gt;&lt;b&gt;define main roster in the team: played minutes &amp;gt; 15mins&lt;/b&gt;&lt;/font&gt;&lt;font color=&quot;#f0bebe&quot;&gt;&lt;b&gt;&lt;br&gt;&lt;/b&gt;&lt;/font&gt;" style="whiteSpace=wrap;html=1;fontSize=20;opacity=0;align=left;" vertex="1" parent="1">
                    <mxGeometry x="620" y="-2330" width="740" height="190" as="geometry"/>
                </mxCell>
                <mxCell id="24" value="&lt;div style=&quot;text-align: center;&quot;&gt;&lt;span style=&quot;font-size: 36px;&quot;&gt;&lt;b&gt;team_key_player.csv&lt;/b&gt;&lt;/span&gt;&lt;/div&gt;&lt;ul style=&quot;font-size: 18px;&quot;&gt;&lt;li style=&quot;&quot;&gt;&lt;font style=&quot;font-size: 18px;&quot;&gt;data from 2003 to 2023&lt;/font&gt;&lt;/li&gt;&lt;li style=&quot;&quot;&gt;table: every seasons' teams' name and their main roster&lt;/li&gt;&lt;/ul&gt;" style="rounded=0;whiteSpace=wrap;html=1;align=left;" vertex="1" parent="1">
                    <mxGeometry x="1220" y="-2400" width="500" height="330" as="geometry"/>
                </mxCell>
                <mxCell id="25" value="&lt;font color=&quot;#f0bebe&quot;&gt;&lt;b&gt;output game_ids without key player (might be injured, traded or load management)&lt;br&gt;compared &quot;team_key_player.csv&quot; to &quot;game_detail.csv&quot;&amp;nbsp;&lt;/b&gt;&lt;/font&gt;&lt;font color=&quot;#f0bebe&quot;&gt;&lt;b&gt;&lt;br&gt;&lt;/b&gt;&lt;/font&gt;" style="whiteSpace=wrap;html=1;fontSize=20;opacity=0;align=left;" vertex="1" parent="1">
                    <mxGeometry x="590" y="-2010" width="790" height="190" as="geometry"/>
                </mxCell>
                <mxCell id="39" value="" style="endArrow=none;html=1;strokeWidth=9;fontSize=36;" edge="1" parent="1">
                    <mxGeometry width="50" height="50" relative="1" as="geometry">
                        <mxPoint x="1450" y="-1861" as="sourcePoint"/>
                        <mxPoint x="1446" y="-2070" as="targetPoint"/>
                    </mxGeometry>
                </mxCell>
                <mxCell id="42" value="" style="endArrow=classic;html=1;strokeWidth=9;fontSize=36;entryX=1;entryY=0.5;entryDx=0;entryDy=0;" edge="1" parent="1" target="20">
                    <mxGeometry width="50" height="50" relative="1" as="geometry">
                        <mxPoint x="900" y="-1860" as="sourcePoint"/>
                        <mxPoint x="900" y="-1760" as="targetPoint"/>
                        <Array as="points">
                            <mxPoint x="900" y="-1580"/>
                        </Array>
                    </mxGeometry>
                </mxCell>
                <mxCell id="45" value="" style="endArrow=none;html=1;strokeWidth=9;fontSize=36;entryX=0.5;entryY=1;entryDx=0;entryDy=0;" edge="1" parent="1">
                    <mxGeometry width="50" height="50" relative="1" as="geometry">
                        <mxPoint x="1450" y="-1864" as="sourcePoint"/>
                        <mxPoint x="390" y="-1863.9999999999995" as="targetPoint"/>
                    </mxGeometry>
                </mxCell>
                <mxCell id="46" value="" style="endArrow=none;html=1;strokeWidth=9;fontSize=36;entryX=0.5;entryY=1;entryDx=0;entryDy=0;" edge="1" parent="1">
                    <mxGeometry width="50" height="50" relative="1" as="geometry">
                        <mxPoint x="390" y="-1859.9999999999995" as="sourcePoint"/>
                        <mxPoint x="390" y="-2029.9999999999995" as="targetPoint"/>
                    </mxGeometry>
                </mxCell>
                <mxCell id="47" value="&lt;font color=&quot;#f0bebe&quot;&gt;&lt;b&gt;filt out games go without key player&lt;br&gt;&lt;/b&gt;&lt;/font&gt;" style="whiteSpace=wrap;html=1;fontSize=20;opacity=0;align=left;" vertex="1" parent="1">
                    <mxGeometry x="30" y="-1630" width="370" height="40" as="geometry"/>
                </mxCell>
            </root>
        </mxGraphModel>
    </diagram>
</mxfile>